<svg width="128" height="128" viewBox="0 0 128 128" fill="none" xmlns="http://www.w3.org/2000/svg">
<path fill-rule="evenodd" clip-rule="evenodd" d="M78.1967 23.842H33.6458V58.685H33.6465V92.3665H80.5142C90.1358 92.3665 97.9356 84.5666 97.9356 74.945C97.9356 66.4004 91.7843 59.2926 83.6684 57.8083C90.6095 55.514 95.6181 48.9737 95.6181 41.2635C95.6181 31.6419 87.8183 23.842 78.1967 23.842Z" fill="white"/>
<path fill-rule="evenodd" clip-rule="evenodd" d="M13.3757 16.2669C13.3757 11.1489 17.5247 7 22.6426 7H106.045C111.163 7 115.312 11.1489 115.312 16.2669V99.669C115.312 104.787 111.163 108.936 106.045 108.936H52.0027L38.1622 120.364C36.3655 121.848 33.653 120.57 33.653 118.24V108.936H22.6426C17.5247 108.936 13.3757 104.787 13.3757 99.669V16.2669ZM33.6458 23.842H78.1967C87.8183 23.842 95.6181 31.6419 95.6181 41.2635C95.6181 48.9736 90.6095 55.514 83.6684 57.8083C91.7843 59.2926 97.9356 66.4004 97.9356 74.945C97.9356 84.5666 90.1358 92.3664 80.5142 92.3664H33.6465V58.685H33.6458V23.842ZM70.6978 39.5194H49.8611V49.9723H70.6978C73.5843 49.9723 75.9243 47.6323 75.9243 44.7458C75.9243 41.8594 73.5843 39.5194 70.6978 39.5194ZM49.8611 62.7484H72.4338C75.641 62.7484 78.241 65.3484 78.241 68.5556C78.241 71.7628 75.641 74.3627 72.4338 74.3627H49.8611V62.7484Z" fill="#1F1F1F"/>
</svg>
